Patient4_TMGait_0pt7_02_left_39_EMG.mot
version=1
nRows=20
nColumns=33
inDegrees=no
endheader
time	1LAddLong	2LGlutMax	3LGlutMed	4LIliopsoas	5LSemiMemb	6LBicFemLong	7LRecFem	8LVastMed	9LVastLat	10LGasMed	11LTibAnt	12lTibPost	13LPeroneusLong	14LSol	15LExtDigLong	16LFlexDigLong	17RAddLong	18RGlutMax	19RGlutMed	20RIliopsoas	21RSemiMemb	22RBicFemLong	23RRecFem	24RVastMed	25RVastLat	26RGasMed	27RTibAnt	28RTibPost	29RPeroneusLong	30RSol	31RExtDigLong	32RFlexDigLong
45.455	-0.005493	-0.098114	-0.15503	-0.009308	-0.008698	0.096436	0.047913	0.013733	0.044861	-0.046997	-0.085754	0.013428	-0.072479	0.071106	0.006256	0.00473	-0.10071	-0.16357	-0.20676	-0.05127	-0.029144	-0.65399	-0.23529	0.076294	0.16449	-0.019531	0.32806	-0.027618	-0.09903	0.008545	0.001373	0.002441
45.456	-0.003967	-0.14343	-0.17029	0.01297	-0.007019	0.10834	-0.000763	0.012207	0.034332	-0.096436	-0.088806	0.003662	-0.10162	-0.11337	0.047455	-0.002136	-0.054626	-0.28107	-0.31876	0.047607	-0.21515	-0.6427	-0.12268	0.15961	-0.051727	-0.021973	0.18402	-0.014801	-0.064545	-0.028992	0.000763	0.002594
45.457	-0.002594	-0.15686	-0.18005	0.002594	0.02121	0.062866	0.009308	0.014496	0.017242	-0.12634	-0.036774	0.006866	-0.008087	-0.12497	0.070648	-0.018616	-0.015106	-0.27603	-0.041656	0.089874	-0.12604	-0.55679	0.10788	0.072479	-0.21896	-0.027924	-0.45517	-0.006104	-0.10712	-0.030518	0.000458	-0.003967
45.458	0.000305	-0.13565	-0.1767	0.00824	0.034332	0.029297	-0.025635	0.021515	0.040131	-0.080872	0.10162	0.006714	-0.091095	-0.10956	0.11826	-0.006714	-0.010834	-0.27283	0.15533	0.079193	-0.082855	-0.47607	0.3009	-0.058441	-0.32837	-0.0383	-0.48157	-0.018768	-0.16953	-0.069122	0.003662	-0.002899
45.459	0.007019	-0.15961	-0.17197	-0.020599	0.028381	0.028992	-0.057831	0.014801	0.027618	-0.003662	0.13962	0.009613	-0.14877	-0.030518	0.28122	-0.002899	-0.014954	-0.30899	0.1091	0.007782	-0.13184	-0.12466	0.40146	0.14069	-0.39917	-0.025482	-0.094604	-0.031586	-0.046387	-0.11093	0.001373	-0.016174
45.46	-0.006256	-0.17441	-0.17227	-0.021667	0.022125	0.040131	-0.044098	0.016174	0.020142	0.058746	0.11231	0.006561	-0.040741	0.068512	0.3949	-0.009308	-0.001373	-0.2121	-0.075226	0.018463	-0.39566	0.26062	0.50888	0.31158	-0.51376	-0.031738	0.020905	-0.04303	0.4631	-0.13001	0.001526	-0.016022
45.461	0.007019	-0.17563	-0.18158	-0.022736	0.006256	0.045471	-0.07309	0.013428	0.007477	0.10437	-0.18677	0.005188	0.27008	0.071259	0.14801	-0.002594	0.070496	-0.2446	-0.29114	0.092926	-0.67215	0.26993	0.44296	0.33752	-0.49683	-0.041046	0.12848	-0.008392	0.3122	-0.13458	0.000916	-0.013123
45.462	-0.008087	-0.19531	-0.16541	-0.004883	0.013885	0.0354	-0.064392	0.008698	-0.000763	0.12375	-0.18127	0.006714	0.28366	0.052032	-0.10223	0.001068	0.09552	-0.24094	-0.42511	0.069275	-0.81894	0.41748	0.26535	0.17624	-0.22354	-0.046844	0.23529	-0.014954	0.46158	-0.18707	0.002289	-0.01709
45.463	-0.002289	-0.21591	-0.1831	-0.000763	0.015259	0.025177	-0.040588	0.010529	0.005341	0.087891	-0.07782	0.005646	0.13733	0.12421	-0.15015	-0.008545	0.13153	-0.43137	-0.18845	0.008545	-0.81604	0.15762	0.13992	-0.11368	-0.021973	-0.0383	0.045471	-0.037994	0.58884	-0.22964	0.005646	-0.016937
45.464	0.002594	-0.23651	-0.1944	0.014343	0.010071	0.027161	-0.012512	0.016632	-0.013123	0.040588	0.21942	0.008392	0.085907	0.14374	-0.045624	-0.01709	0.19089	-0.56244	0.1265	-0.001678	-0.99045	-0.34805	0.26398	-0.46478	0.00412	-0.028534	-0.47424	-0.042725	0.22614	-0.27573	0.001068	-0.000916
45.465	-0.001068	-0.23239	-0.19089	0.035706	0.005798	0.018921	-0.005646	0.004578	-0.009613	0.028839	0.3714	-0.006561	-0.083466	0.12146	-0.029602	-0.007629	0.23163	-0.60806	0.33463	-0.083771	-0.79834	-0.5661	0.22705	-0.45548	0.14175	-0.016479	-0.634	-0.054169	0.17868	-0.17288	0.001831	0.002899
45.466	0.001678	-0.20721	-0.19028	0.038605	0.00351	0.03418	-0.020142	0.006104	-0.007935	0.025787	0.39963	0.011292	-0.15778	0.040588	-0.15381	-0.00946	0.21149	-0.58868	0.52704	-0.13245	-0.54489	-0.8252	0.040588	-0.34973	0.075073	-0.030212	-0.1918	-0.06897	-0.89584	-0.066528	-0.00061	-0.004883
45.467	0.00351	-0.23499	-0.19272	0.014648	0.002747	0.044403	-0.020599	0.010376	-0.00351	-0.00351	0.21194	0.006256	-0.059509	0.088959	-0.053101	0.002899	0.099182	-0.56366	0.29404	-0.084534	-0.45151	-0.9932	-0.34271	-0.49484	0.012817	-0.040283	0.009155	-0.053406	-1.0399	0.019684	0	-0.005951
45.468	-0.006409	-0.27252	-0.1886	0.018768	-0.013428	0.060272	-0.014191	0.014343	-0.002289	-0.054321	-0.077667	0.013275	-0.01709	0.15121	0.094604	-0.010071	0.051575	-0.44464	0.26611	-0.002289	-0.17441	-0.99792	-0.14236	-0.63339	-0.10422	-0.06012	0.37903	0.020447	-0.12253	0.1712	0.00412	-0.014954
45.469	0.006866	-0.25024	-0.20508	0.019073	-0.011597	0.054016	0.050201	0.013123	0.005951	0.026245	-0.25406	0.000916	-0.058746	0.11566	-0.069427	-0.000153	-0.014191	-0.34347	-0.091553	0.083771	-0.17716	-0.72494	0.03952	-0.7164	0.26886	-0.053711	0.55573	-0.041046	0.87845	0.23605	0.002289	-0.016785
45.47	0.017395	-0.24185	-0.20538	0.000458	-0.014496	0.023956	0.046692	0.005646	-0.001526	0.083771	-0.31784	0.005188	-0.090637	0.097046	-0.020142	0.015717	-0.041199	-0.36774	-0.48538	0.019073	-0.52033	-0.35904	0.47012	-0.44846	0.29816	-0.05188	0.62027	-0.058899	0.88959	0.08316	-0.001678	-0.014038
45.471	-0.024109	-0.24506	-0.20645	-0.011139	-0.014801	0.019073	0.051117	0.009918	-0.004883	0.093384	-0.19745	0.006104	-0.042725	0.040894	-0.29404	0.001678	-0.037537	-0.31998	-0.57007	-0.25253	-0.21393	-0.10864	0.70175	-0.085449	0.49255	-0.035858	0.46158	-0.061035	0.17716	-0.051422	0.000916	-0.004425
45.472	-0.010529	-0.17258	-0.21225	-0.004883	-0.023499	0.027008	0.039215	0.009766	-0.010529	0.068054	-0.16251	0.004272	0.006866	-0.008392	-0.30807	0.000763	-0.12466	-0.27466	-0.35141	-0.33997	-0.16571	0.44067	0.50674	0.24612	0.53451	-0.0354	0.2327	-0.057068	-0.25909	-0.079956	0.004578	-0.001678
45.473	-0.003204	-0.20477	-0.21301	0.003204	-0.038147	0.038605	0.009155	0.013123	-0.041809	-0.047913	-0.14023	0.001526	-0.047607	0.023499	-0.1648	0.010223	-0.29999	-0.34653	1.0184	-0.20584	-0.22888	0.62592	0.070801	0.56839	0.57114	-0.028992	-0.61188	-0.061035	0.019836	0.093231	-0.000153	-0.010986
45.474	-0.005646	-0.25223	-0.20279	0.011292	-0.055084	0.002594	-0.017548	0.006714	-0.030975	-0.2713	-0.10513	0.00824	-0.041809	0.010681	-0.065613	-0.003662	-0.35187	-0.52429	1.5892	-0.010681	0.23025	0.55908	-0.16769	0.84518	0.52338	-0.039978	-0.73166	-0.063171	-0.072327	0.23178	0.000153	-0.01236
